# xmcd
#
# Track frame offsets:
#	150
#	12457
#	27693
#	41119
#	54872
#	71769
#	85545
#	100029
#	114378
#	127001
#	137476
#	154875
#	168791
#	184000
#	197052
#	210574
#	224513
#	240145
#	256159
#
# Disc length: 3602 seconds
#
# Revision: 1
# Processed by: cddbd v1.4PL0 Copyright (c) Steve Scherf et al.
# Submitted via: EasyCDDAExtractor 6.2.0.3
#
DISCID=010e1013
DTITLE=Boate Azul - Vol.2
DYEAR=1900
DGENRE=Country
TTITLE0=Moreninha Linda
TTITLE1=Estrela De Ouro
TTITLE2=Flexa Certeira
TTITLE3=Liguei Pra Te Dizer Que Eu Te Amo
TTITLE4=Porta Do Mundo
TTITLE5=Capa De Revista
TTITLE6=Viola Viva
TTITLE7=Saudades Da Minha Terra
TTITLE8=Cinzas Do Passado
TTITLE9=Recordações
TTITLE10=Do Oiapoque Ao Chui
TTITLE11=Cavalo Enxuto
TTITLE12=Quem Bate Nunca Se Lembra
TTITLE13=Um Ombro Pra Chorar
TTITLE14=Vou Tomar Um Pingão
TTITLE15=Papa Tudo
TTITLE16=Seresteiro Encantado
TTITLE17=Reino Encantado
TTITLE18=Florzinha Do Campo
EXTD=
EXTT0=
EXTT1=
EXTT2=
EXTT3=
EXTT4=
EXTT5=
EXTT6=
EXTT7=
EXTT8=
EXTT9=
EXTT10=
EXTT11=
EXTT12=
EXTT13=
EXTT14=
EXTT15=
EXTT16=
EXTT17=
EXTT18=
PLAYORDER=
